<svg width="40" height="40" viewBox="0 0 40 40" fill="none" xmlns="http://www.w3.org/2000/svg">
<rect width="40" height="40" rx="5" fill="#52333C"/>
<path d="M10.7838 18.2C9.79676 18.2 9 19.004 9 20C9 20.996 9.79676 21.8 10.7838 21.8C11.7708 21.8 12.5676 20.996 12.5676 20C12.5676 19.004 11.7708 18.2 10.7838 18.2ZM10.7838 11C9.79676 11 9 11.804 9 12.8C9 13.796 9.79676 14.6 10.7838 14.6C11.7708 14.6 12.5676 13.796 12.5676 12.8C12.5676 11.804 11.7708 11 10.7838 11ZM10.7838 25.4C9.79676 25.4 9 26.216 9 27.2C9 28.184 9.80865 29 10.7838 29C11.7589 29 12.5676 28.184 12.5676 27.2C12.5676 26.216 11.7708 25.4 10.7838 25.4ZM15.5405 28.4H29.8108C30.4649 28.4 31 27.86 31 27.2C31 26.54 30.4649 26 29.8108 26H15.5405C14.8865 26 14.3514 26.54 14.3514 27.2C14.3514 27.86 14.8865 28.4 15.5405 28.4ZM15.5405 21.2H29.8108C30.4649 21.2 31 20.66 31 20C31 19.34 30.4649 18.8 29.8108 18.8H15.5405C14.8865 18.8 14.3514 19.34 14.3514 20C14.3514 20.66 14.8865 21.2 15.5405 21.2ZM14.3514 12.8C14.3514 13.46 14.8865 14 15.5405 14H29.8108C30.4649 14 31 13.46 31 12.8C31 12.14 30.4649 11.6 29.8108 11.6H15.5405C14.8865 11.6 14.3514 12.14 14.3514 12.8Z" fill="#FF5555"/>
</svg>
